<?xml version="1.0" encoding="UTF-8"?>
<svg id="Layer_1" data-name="Layer 1" xmlns="http://www.w3.org/2000/svg" xmlns:xlink="http://www.w3.org/1999/xlink" viewBox="0 0 280 280">
  <defs>
    <linearGradient id='a' gradientUnits='objectBoundingBox' x1='0' y1='0' x2='1' y2='1'>
      <stop offset='0' stop-color='#ff00ff'>
        <animate attributeName="stop-color" values="#ff00ff;#af00ff;#5f00ff;#0090ff;#00ffff;#00ff00;#99ff00;#ffff00;#ff8800;#ff0000;#ff00ff;" dur="20s" repeatCount="indefinite">
        </animate>
      </stop>
      <stop offset='10' stop-color='#af00ff'>
        <animate attributeName="stop-color" values="#af00ff;#5f00ff;#0088ff;#00ffff;#00ff00;#99ff00;#ffff00;#ff8800;#ff0000;#ff00ff;#af00ff;" dur="20s" repeatCount="indefinite">
        </animate>
      </stop>
      <stop offset='20' stop-color='#5f00ff'>
        <animate attributeName="stop-color" values="#5f00ff;#0090ff;#00ffff;#00ff00;#99ff00;#ffff00;#ff8800;#ff0000;#ff00ff;#af00ff;#5f00ff;" dur="20s" repeatCount="indefinite">
        </animate>
      </stop>
      <animateTransform attributeName="gradientTransform" type="rotate" from="0 .5 .5" to="360 .5 .5" dur="20s" repeatCount="indefinite" />
    </linearGradient>
    <linearGradient id='b' gradientUnits='objectBoundingBox' x1='0' y1='1' x2='1' y2='1'>
      <stop offset='0' stop-color='#ff00ff'>
        <animate attributeName="stop-color" values="#ff00ff;#af00ff;#5f00ff;#0090ff;#00ffff;#00ff00;#99ff00;#ffff00;#ff8800;#ff0000;#ff00ff;" dur="20s" repeatCount="indefinite">
        </animate>
      </stop>
      <stop offset='20' stop-color='#af00ff' stop-opacity="0.1">        <!-- This stop in gradient b drops opacity to 10% to allow gradient a to viewed through it -->
        <animate attributeName="stop-color" values="#af00ff;#5f00ff;#0088ff;#00ffff;#00ff00;#99ff00;#ffff00;#ff8800;#ff0000;#ff00ff;#af00ff;" dur="20s" repeatCount="indefinite">
        </animate>
      </stop>
      <animateTransform attributeName="gradientTransform" type="rotate" values="360 .5 .5;0 .5 .5" class="ignore" dur="20s" repeatCount="indefinite" />
    </linearGradient>
    <style>
      .cls-1 {
        fill: #5A3307;
      }

      .cls-2 {
        fill: url(#radial-gradient-2);
      }

      .cls-3 {
        fill: url(#radial-gradient);
      }

      .cls-4 {
        fill: #ffcb37;
      }

      .cls-5 {
        fill: #925711;
      }

      .gradient-a {
        fill: url(#a);
      }

      .gradient-b {
        fill: url(#b);
      }

      .cls-7 {
        fill: #fae742;
      }

      .cls-8 {
        fill: #8d8d8d;
      }
    </style>
    <radialGradient id="radial-gradient" cx="150.72" cy="213.82" fx="150.72" fy="213.82" r="110.46" gradientTransform="translate(0 171.72) scale(1 .2)" gradientUnits="userSpaceOnUse">
      <stop offset="0" stop-color="#000" stop-opacity=".2"/>
      <stop offset=".84" stop-color="#000" stop-opacity=".1"/>
      <stop offset="1" stop-color="#000" stop-opacity="0"/>
    </radialGradient>
    <radialGradient id="radial-gradient-2" cx="142.64" cy="244.85" fx="142.64" fy="244.85" r="80.61" gradientTransform="translate(0 197.98) scale(1 .19)" xlink:href="#radial-gradient"/>
    <linearGradient id="Light_Gold" data-name="Light Gold" x1="62.34" y1="161.32" x2="218.32" y2="161.32" gradientUnits="userSpaceOnUse">
      <stop offset="0" stop-color="#f2e2c5"/>
      <stop offset=".5" stop-color="#e8cf9c"/>
      <stop offset=".54" stop-color="#e7cd99"/>
      <stop offset="1" stop-color="#e1c282"/>
    </linearGradient>
  </defs>
  <ellipse class="cls-3" cx="150.72" cy="213.13" rx="112.5" ry="24.82"/>
  <ellipse class="cls-2" cx="142.64" cy="243.26" rx="82.1" ry="17.2"/>
  <path id="brass" class="cls-4" d="M131.37,113.53c5.23-.62,19-.95,23.6,0,.91.19,1.62.37,2.21.59-.52-.12-1.05-.18-1.61-.22-.77-.06-1.6-.09-2.43,0-.07,0-.14.02-.21.02.32.05.62.11.93.21.34.05.68.14,1,.25,1.12.41,2.47,1.25,3.33,2.16.82.88,1.42,2.01,1.75,3.15.34,1.16.34,2.45.23,3.73-.11,1.36-.38,3-.93,4.2-.13.29-.29.58-.46.86.26-.13.51-.28.76-.42-.43,3.84,1.36,12.36.41,16.62-.75,3.4-2.25,6.54-4.24,7.93-1.76,1.23-3.77.63-6.64.74-4.08.16-12.38-.66-16.22-.37-2.52.19-3.8,1.48-5.53,1.11-1.78-.38-3.71-1.55-4.98-3.5-1.67-2.57-2.47-7.92-2.95-11.8-.46-3.74-.33-7.92,0-11.06.27-2.58.59-4.58,1.48-6.64.89-2.07,2.12-4.46,3.87-5.72,1.75-1.26,3.44-1.46,6.64-1.84h-.01Z"/>
  <path id="iron" class="cls-8" d="M198,40.06c0-1.21.98-2.19,2.2-2.2h0s.7.01.7.01c14.08,0,24.88,12.28,26.01,29h-14.47c-.8-16.67-8.41-22.66-13.05-24.78-.82-.34-1.37-1.14-1.39-2.03ZM80.59,42.1c.83-.34,1.37-1.14,1.39-2.03.01-1.21-.98-2.2-2.19-2.2h-.71c-14.08,0-24.88,12.27-26.01,29h14.47c.79-16.67,8.41-22.66,13.05-24.77ZM206.59,66.34c-.05-.82-.12-1.62-.21-2.37-.13,0-.24,0-.37,0,.12.8.32,1.61.58,2.37ZM64.88,72.68h-8.04c.35.14.69.26,1.04.34,1.89.46,4.74.38,7-.34ZM215.28,130.7c-.04.05-.08.1-.11.15l-4.9,58.82c-.54,6-5.55,10.61-11.58,10.64h-6.49v-2.78c-1.73-.04-3.7,0-5.8.09v2.68h-105.12c-6.02-.03-11.03-4.64-11.56-10.64l-4.9-58.73c-.08-.08-.17-.16-.26-.24h-11.28l6.82,68.16c.73,7.42,6.97,13.07,14.43,13.05h24.46s0-.07,0-.1c0-1.28.32-2.5.89-3.56h0s6.7,3.66,6.7,3.66h21.72c2.23-1.49,4.19-3.45,5.69-5.87l1.12-1.82h44.38c4.2,0,7.61,3.41,7.61,7.6,0,.03,0,.06,0,.09h18.37c7.46.02,13.7-5.63,14.43-13.05h-.01s6.83-68.15,6.83-68.15h-11.43ZM81.35,48.56c.25-.23.47-.45.69-.67-.8.46-1.67,1.09-2.54,1.93.75-.43,1.4-.85,1.85-1.26ZM165.75,209.54c-3.46-1.98-7.62-2.35-11.39-1.03-2.04.72-3.84,1.9-5.28,3.39h20.37c-.6-.49-1.22-.95-1.91-1.34l-1.79-1.02Z"/>
  <path id="inside-chest" class="cls-1" d="M59.19,68.21c1.2-.18,2.77-.11,4.04.22,1.27.34,2.16,1.5,3.59,1.8,1.69.35,3.67-.29,6.06-.22,3.01.08,7.58.99,10.78.9,2.76-.08,4.63-.92,7.41-1.12,3.24-.24,6.24-.17,11,0,6.86.24,20.31,1.73,27.39,1.8,5.11.05,8.18-.72,12.12-.67,3.83.04,7.62.91,11.22.9,3.42-.01,5.04-.66,9.88-.9,8.35-.41,29.68-1.01,38.84-.67,5.93.21,9.83,1.49,13.02,1.35,2.18-.1,3.3-1.29,4.94-1.12,1.69.17,3.9,1.18,5.05,2.24,1,.92,1.46,2.26,1.8,3.48.08.3.15.6.21.9-1.04,1.34-11.49,17.08-11.66,18.64-.16,1.5-.72,3.2-1.35,4.27-.52.87-1.12,1.38-1.91,1.91-.87.58-2.08,1.13-3.14,1.35-.94-.8-2.88-2.11-2.82-2.34.3-1.1-.99-.97-1.2-2-.22-1.07-.58-2.2-1.35-3.14-.88-1.08-2.42-2.29-3.93-2.81-1.12-.38-2.44-.54-3.77-.45-.36-.08-.72-.16-1.07-.25-1.61-.41-3.58-.78-5.39-.67-1.86.11-3.34,1.09-5.61,1.35-2.92.32-6.74.32-10.77,0-4.77-.38-12.81-1.44-16.16-2.47-1.97-.6-2.37-1.83-3.82-2.02-1.59-.21-3.68,1.37-5.39,1.12-1.5-.22-2.56-1.67-4.17-2.36.08-.2.15-.39.21-.57.35-1.14.26-2.08,0-3.14-.28-1.18-.88-2.61-1.8-3.59-.96-1.03-2.32-1.9-3.93-2.36-1.9-.54-4.96-.6-6.96-.22-1.74.33-3.35.98-4.49,2.02-1.13,1.03-2,2.85-2.36,4.15-.3,1.1-.24,2.09,0,3.14.03.12.06.25.09.37-.15-.09-.16-.2-.39-.14-.65.18-1.93,1.98-3.14,2.47-1.25.5-2.83.77-4.27.45-.84-.19-1.9-.73-2.84-1.33-.22-1.47-.85-3.04-1.51-4.06-.79-1.22-1.87-2.06-3.26-2.58-1.61-.61-4.16-.42-6.06-.45-1.75-.03-3.47-.15-4.94.22-1.35.34-2.6.83-3.59,1.8-.5.49-1.88.04-2.32.78-.23-.01-1,1.09-1.17,1.31-.17.23,1.33.68,1.32,1.21-.19.45-.33.89-.42,1.3-.15.69-.14,1.44-.04,2.17-1.16,2.93-3.84,5.52-3.84,8.34-.08.08-.22,3.81-.3,3.89-.56,1.54-4.96,2.6-5.98,3.5-.95.84-2.08,1.13-3.14,1.35-1.03.21-2.02.32-3.14,0-1.36-.39-3.2-1.41-4.38-2.58-1.19-1.18-2.19-3.05-2.69-4.49-.18-.5-.33-.98-.43-1.44-1.7-2.6-4.22-7.66-5.71-9.39-.97-1.13-1.53-.93-2.47-1.91-1.39-1.43-3.94-4.27-4.94-6.51-.9-2.03-1.49-4.35-1.12-6.29.36-1.91,2.06-4.24,3.26-5.28.91-.79,1.83-.96,2.92-1.12l-.02-.04Z"/>
  <path id="chest-inside" class="cls-1" d="M76.5,100.46h.14c3.39.24,7.72.33,8.77.12.35-.12.98-.66,1.26-1.06-1.71-2.42-2.36-5.26-1.83-7.81-1.29-.79-2.42-1.9-2.95-3.51-.38-1.15-.7-3.46,1.39-6,4.22-5.13,9.27-7.55,13.85-6.64,1.74.34,6.65.24,8.51.2.55-.01.99-.02,1.24-.02,2.68,0,11.1,3.59,11.1,9.82,0,.95-.1,1.84-.27,2.65.62.02,1.43.04,2.44.04.27,0,.5-.09.67-.21-.47-.98-1.14-2.51-1.14-4.68,0-6.62,4.36-9.98,12.96-9.98,10.61,0,14.57,6.12,14.57,9.98,0,.19,0,.39.02.59.02.47.01.9-.01,1.31,1.02-1.53,2.33-2.38,3.88-2.49,1.92-.14,3.63.91,4.59,2.8.77,1.36,5.06,5.01,7.96,5.17,2.88.16,6.31.17,9.03.07-.51-.98-.89-2.2-.89-3.7,0-7.42,8.07-7.42,12.41-7.42,10.86,0,16.36,2.85,16.36,8.47,0,1.58-.34,3.01-.83,4.26,3.58.43,7.73,1.21,10.97,3.03l13.92-22.63s-.05-.07-.08-.09c-.02-.02-.04-.03-.06-.05h-23.56v-2.44c-1.64-.05-3.62-.08-5.81-.08v2.53H55.4l18.17,28.09,2.93-.31Z"/>
  <path id="chest-top" class="cls-5" d="M134.19,43.67h11.6v23.2h-11.6v-23.2ZM100.63,62.35c-2.01.71-4.13,1.08-6.26,1.1-7.13.38-13.26.5-20.75.52-.11.92-.2,1.87-.25,2.89h55.03v-14.5c-10.39,0-22.11.01-31.56.03h-.68c.58.37,1.21.71,1.86,1.07,1.14.6,2.25,1.27,3.31,2.01,1.67.97,2.37,3.03,1.62,4.82-.48.96-1.31,1.7-2.32,2.06ZM184.77,56.08c.53-.29,1.08-.56,1.63-.8h-34.81v11.6h43.51v4.3c1.85,0,3.88.05,5.81.14v-4.45h5.52c.06-.11.12-.23.17-.34-.05-.89-.13-1.75-.23-2.56-5.73-.02-7.68-.09-14.11-.36l-.81-.03c-2.05,0-4.08-.27-6.06-.79-.99-.25-1.84-.86-2.4-1.71-.43-.77-.56-1.67-.37-2.53.34-1.09,1.11-1.98,2.14-2.47ZM193.16,43.68h-41.57v5.8c11.46,0,26.99,0,37.37.02h.5c1.16-.06,2.32.04,3.46.29,2.34.33,4.06,2.39,3.96,4.75-.25,1.41-1.13,2.64-2.38,3.35,4.43.19,6.55.26,10.72.28-2.03-6.82-5.73-9.63-8.24-10.77-1.71-.77-2.99-2.12-3.82-3.72ZM83,47.39c-2.51,1.14-6.21,3.95-8.24,10.77,6.72-.03,12.45-.15,18.91-.49-.94-.54-1.83-1.16-2.66-1.86-1.15-.9-1.91-2.21-2.11-3.65-.07-2.37,1.47-4.49,3.75-5.14,1.18-.36,2.43-.5,3.67-.43h.5c9.46-.02,21.18-.02,31.57-.02v-2.9h-41.57c-.82,1.61-2.11,2.95-3.82,3.72Z"/>
  <path id="chest-bottom" class="cls-5" d="M155.09,179.61c.27-.1.54-.2.81-.3v15.19h-23.11c-.17-3.76-.97-7.4-2.34-10.8,2.27-.36,4.55-.65,6.84-.82,1.78-.19,3.56-.39,5.33-.62.95-.07,1.9-.18,2.84-.31.33-.05.66-.11,1-.16.6-.1,1.2-.19,1.8-.31.41-.08.81-.17,1.22-.26.51-.11,1.01-.23,1.52-.36.45-.11.89-.24,1.34-.36.45-.13.89-.27,1.33-.41.48-.15.95-.31,1.42-.47ZM155.67,156.7c.08-.01.15-.02.23-.04v16.42c-4.43,1.91-9.15,3.08-14,3.41-1.74.22-3.48.41-5.22.61-3.03.23-6.05.62-9.04,1.16-1.89-2.94-4.26-5.61-7.07-7.87-1.75-1.41-3.65-2.63-5.64-3.65,0,0,0,0,0,0,.11-.09.23-.16.34-.25.65-.5,1.13-1.2,1.36-1.99.61-2.07-.57-4.24-2.64-4.85-7.53-3.01-15.51-4.73-23.61-5.08-6.06-.34-11.83-1.26-18.01-3.14-.05-.36-.05-.66-.09-1.02l-.43-5.23h27.54v-5.8h-28.02l-.72-8.7h46.14l.19,16.92c0,2,8.11,9.08,9.04,9.08l28.48.09c.29,0,.59-.02.87-.04.1-.01.2-.03.31-.04ZM110.99,139.39h-5.8v5.8h5.8v-5.8ZM132.83,195.96c0-.49-.01-.97-.04-1.46h0c.02.49.04.97.04,1.46ZM85.04,171.19c0-4.47,3.65-8.1,8.12-8.1h6.69c2.79,0,5.56.36,8.25,1.05,0,0,0,0,0,0,.24-.11.49-.22.72-.33-6.18-1.93-12.56-3.09-19.02-3.45-5.72-.34-11.39-1.28-16.92-2.76l1.32,15.91h.01c3.64-.6,7.25-1.33,10.84-2.16,0-.05,0-.1,0-.16ZM99.96,181.83l-.3-.26c-1.84-1.47-4.15-2.28-6.5-2.28s-4.39-.97-5.86-2.51c0,0,0,0,0,0-.12.03-.25.06-.37.09-.05.01-.1.02-.15.03-1.76.41-3.52.79-5.29,1.15-.42.08-.84.17-1.25.25-1.84.36-3.69.7-5.54,1l.82,9.87c.26,3,2.77,5.3,5.78,5.32h19.17c.23-.44.47-.88.73-1.31.08-.13.16-.26.24-.39.19-.3.39-.61.6-.9.1-.14.19-.27.29-.41.22-.3.45-.6.69-.89.09-.11.18-.22.27-.33.27-.33.56-.65.85-.97-.36-2.93-1.83-5.6-4.17-7.47ZM192.56,130.69h0s0,0,0,0ZM184.52,150.13v5.29c7.59-.91,15.23-1.39,22.89-1.48l.73-8.75h-20.01l-3.61,4.94ZM192.56,130.69c.02.36.05.72.05,1.08v2.09c0,1.92-.35,3.78-1,5.53,0,0,0,0,0,0h17.01l.72-8.7h-16.78ZM184.52,194.5h1.88v4.08c2.12-.03,4.09-.09,5.8-.17v-3.9h6.49c3.01-.02,5.51-2.32,5.78-5.32l.04-.48c-7.05,0-13.2-.04-19.99-.38v6.17ZM201.34,159.91c-.8.03-1.6.06-2.4.11-.67.03-1.34.07-2,.11-.61.04-1.23.08-1.84.12-.79.06-1.58.11-2.37.18-.41.03-.81.07-1.22.11-2.33.2-4.66.45-6.99.73v10.69c1.97-.66,3.99-1.24,6.1-1.71.12-.03.24-.06.36-.08.43-.09.86-.18,1.29-.26.19-.04.39-.08.58-.11.39-.07.79-.14,1.19-.21.24-.04.49-.08.73-.12.37-.06.75-.11,1.13-.17.28-.04.57-.08.85-.11.35-.05.71-.09,1.07-.13.32-.04.65-.07.98-.11.34-.03.67-.07,1.01-.1.37-.03.74-.06,1.12-.09.31-.02.62-.05.94-.07.44-.03.9-.06,1.35-.08.26-.01.51-.03.78-.04.72-.03,1.45-.06,2.19-.08l.72-8.71c-1.34.02-2.68.05-4.03.09-.52.02-1.03.04-1.55.06ZM184.52,178.09v4.42c6.96.35,13.22.38,20.48.38l.72-8.62h-.01c-8.28.28-15.03,1.49-21.19,3.82Z"/>
  <path id="black-outline" d="M206.7,200.3h5.8v5.8h-5.8v-5.8ZM224.11,133.59h-5.8v5.8h5.8v-5.8ZM163.59,134.34h0c-.11-.07-.22-.13-.33-.18-.05-.02-.1-.04-.14-.05-.11-.04-.21-.07-.33-.1-.05-.01-.09-.02-.14-.03-.16-.03-.31-.05-.48-.05,0,0,0,0,0,0s0,0,0,0c-1.5,0-2.72,1.22-2.72,2.71s1.22,2.71,2.72,2.71c0,0,0,0,0,0s0,0,0,0c.16,0,.32-.02.48-.05.05,0,.09-.02.14-.03.11-.03.22-.06.33-.1.05-.02.1-.03.14-.05.11-.05.22-.11.33-.17h0c.77-.48,1.3-1.33,1.3-2.3s-.52-1.82-1.3-2.3ZM136.84,138.58h5.8v-11.6h-5.8v11.6ZM177.21,134.04c-1.5,0-2.72,1.22-2.72,2.71s1.22,2.71,2.72,2.71,2.72-1.22,2.72-2.71-1.22-2.71-2.72-2.71ZM110.99,139.39h-5.8v5.8h5.8v-5.8ZM55.88,142.29h5.8v-5.8h-5.8v5.8ZM67.48,206.1h5.8v-5.8h-5.8v5.8ZM232.84,127.77c0,.1,0,.2-.01.3l-7.14,71.35c-1.02,10.39-9.78,18.31-20.22,18.27h-13c-.27.6-.58,1.17-.93,1.72h3.83c7.87.01,14.26,6.4,14.26,14.27s-6.39,14.26-14.26,14.26h-104.67c-7.87,0-14.26-6.4-14.26-14.26s6.39-14.26,14.26-14.26h3.83c-.35-.55-.66-1.13-.94-1.73h-19.05c-10.44.03-19.19-7.88-20.2-18.27l-7.14-71.35c-.09-.9.27-1.72.86-2.31l-.03-.03,19.43-21.97s0,0,0-.01l-19.86-32.46.04-.03c-.27-.44-.47-.93-.47-1.49,0-21.5,13.72-37.71,31.91-37.71h.7c3.65,0,6.69,2.46,7.65,5.8h105.11c.96-3.34,4-5.8,7.65-5.8h.7c18.19,0,31.91,16.21,31.91,37.71,0,.54-.18,1.01-.44,1.46h.02l-17.43,28.34c.09.17.19.33.27.5,1.95,4.14,4.97,10.16,6.09,12.15.86,1.51,4.32,6.27,6.29,8.92.17.22.32.46.45.7l3.86,3.86h.02c.55.52.9,1.25.9,2.07ZM198,40.06c.02.89.57,1.69,1.39,2.03,4.64,2.12,12.25,8.11,13.05,24.78h14.47c-1.13-16.72-11.93-29-26.01-29h-.7c-1.22,0-2.2.98-2.2,2.19ZM151.59,49.48c11.46,0,26.99,0,37.37.02h.5c1.16-.06,2.32.04,3.46.29,2.34.33,4.06,2.39,3.96,4.75-.25,1.41-1.13,2.64-2.38,3.35,4.43.19,6.55.26,10.72.28-2.03-6.82-5.73-9.63-8.24-10.77-1.71-.77-2.99-2.12-3.82-3.72h-41.57v5.8ZM134.19,66.87h11.6v-23.2h-11.6v23.2ZM102.95,60.29c-.48.96-1.31,1.7-2.32,2.06-2.01.71-4.13,1.08-6.26,1.1-7.13.38-13.26.5-20.75.52-.11.92-.2,1.87-.25,2.89h55.03v-14.5c-10.39,0-22.11.01-31.56.03h-.68c.58.37,1.21.71,1.86,1.07,1.14.6,2.25,1.27,3.31,2.01,1.67.97,2.37,3.03,1.62,4.82ZM83,47.39c-2.51,1.14-6.21,3.95-8.24,10.77,6.72-.03,12.45-.15,18.91-.49-.94-.54-1.83-1.16-2.66-1.86-1.15-.9-1.91-2.21-2.11-3.65-.07-2.37,1.47-4.49,3.75-5.14,1.18-.36,2.43-.5,3.67-.43h.5c9.46-.02,21.18-.02,31.57-.02v-2.9h-41.57c-.82,1.61-2.11,2.95-3.82,3.72ZM53.07,66.87h14.47c.79-16.67,8.41-22.66,13.05-24.77.83-.34,1.37-1.14,1.39-2.03.01-1.21-.98-2.2-2.19-2.2h-.71c-14.08,0-24.88,12.27-26.01,29ZM73.57,100.77l2.93-.31h.15c3.39.24,7.72.33,8.77.12.34-.13.98-.66,1.25-1.06-1.71-2.42-2.36-5.26-1.83-7.81-1.29-.79-2.42-1.9-2.95-3.52-.38-1.15-.7-3.45,1.39-5.99,4.22-5.13,9.27-7.56,13.86-6.64,1.73.34,6.65.24,8.5.2.56-.01.99-.02,1.24-.02,2.68,0,11.1,3.59,11.1,9.82,0,.95-.1,1.84-.27,2.65.62.02,1.43.04,2.44.04.27,0,.5-.09.67-.21-.47-.97-1.14-2.51-1.14-4.68,0-6.62,4.36-9.98,12.96-9.98,10.61,0,14.57,6.12,14.57,9.98,0,.19,0,.39.02.59.01.47.01.91-.02,1.32,1.02-1.53,2.34-2.38,3.88-2.49,1.92-.15,3.63.9,4.59,2.8.77,1.36,5.06,5.01,7.96,5.17,2.87.15,6.31.16,9.03.06-.51-.98-.89-2.19-.89-3.7,0-7.42,8.07-7.42,12.41-7.42,10.86,0,16.36,2.85,16.36,8.47,0,1.58-.34,3.01-.83,4.26,3.58.43,7.74,1.2,10.97,3.02l14.01-22.77h-23.79v-5.8h5.72c-.05-1.02-.14-1.98-.25-2.9-5.73-.02-7.68-.09-14.11-.36l-.81-.03c-2.05,0-4.08-.27-6.06-.79-.99-.25-1.84-.86-2.4-1.71-.43-.77-.56-1.67-.37-2.53.34-1.09,1.11-1.98,2.14-2.47.53-.29,1.08-.56,1.63-.8h-34.81v11.6h43.51v5.8H55.4l18.17,28.09ZM62.34,122.27l54.07-.1v-2.13c0-6.34,5.07-11.5,11.3-11.5h24.58c4.09,0,6.87,2,7.99,3.36,0,0,12.44,0,19.24.67,8.19.68,12.65,5.49,14.65,8.49l24.15.93c-1.53-2.12-3.22-4.54-3.96-5.82-1.22-2.17-4.32-8.34-6.37-12.7-.51-1.08-3.05-2.55-12.32-3.43-3.09-.3-4.79-.46-5.95-2.38l-1.04-1.71.74-1.92c.3-.74.73-1.3,1.23-1.94.69-.89,1.59-2.05,1.84-3.3-.94-.44-3.41-1.1-8.3-1.1-.89,0-2.62,0-3.85.12.04.04.08.08.11.12.98,1.05,2.63,2.8,2.63,5.71,0,1.19-.49,2.31-1.37,3.14-1.96,1.86-8.19,2.52-18.51,1.95-4.42-.24-8.85-3.11-11.73-5.89l-2.17,1.19c-3.94,2.19-8.72-.84-10.65-3.86-1.6-2.51-.85-4.85.58-6.08-.01-.16-.02-.32-.02-.48-.29-.69-1.92-2.23-6.57-2.23-4,0-4.85.87-4.85.88-.03.05-.11.27-.11,1.1,0,.47.11.73.44,1.4.39.79.97,2,.97,3.56,0,3.74-3.82,7.93-8.94,7.93-3.28,0-4.8-.16-4.96-.17l-.47-.08-9.9-2.28,4.17-5s.23-.3.46-.82c.23-.51.48-1.24.52-2.09-.49-.69-2.34-1.79-3.35-2.07-.21.01-.49.01-.81.02-3.7.07-7.84.12-10.23-.36-.75-.15-2.43.22-4.55,2.19.23.07.43.12.56.15,3.45.87,4.05,2.9,3.95,4.46-.02.3-.27,2.74-2.84,3.57.06.31.2.73.55,1.19,1.56,2.08,1.95,4.57,1.09,7-1.16,3.29-4.47,5.74-6.99,6.38-2.34.59-8.14.31-10.88.13l-2.78.32c-4.99,6.02-8.64,10.36-11.35,13.48ZM174.1,219.41h5.38c4.19,0,7.61-3.41,7.61-7.6s-3.41-7.6-7.61-7.6h-44.38l-1.12,1.82c-3.65,5.88-9.97,9.14-16.47,9.14-3.13,0-6.31-.76-9.25-2.35l-8.39-4.57c-.57,1.06-.89,2.27-.89,3.55,0,4.19,3.41,7.6,7.61,7.6h38.77c.73-4.95,4.17-9.19,9-10.89,3.77-1.32,7.93-.95,11.39,1.03l1.79,1.02c3.36,1.92,5.71,5.17,6.56,8.85ZM165.18,214.71l-1.79-1.03c-2.26-1.3-4.99-1.54-7.45-.67-2.92,1.02-5.06,3.48-5.75,6.4h18.94c-.71-1.96-2.08-3.63-3.95-4.7ZM99.39,139.39v5.8h-27.54l.52,6.25c5.87,1.73,11.9,2.8,18.01,3.14,8.1.35,16.08,2.07,23.61,5.08,2.07.61,3.25,2.78,2.64,4.85-.23.79-.71,1.49-1.36,1.99-.11.09-.23.16-.34.25,1.99,1.02,3.89,2.24,5.64,3.65,2.81,2.26,5.18,4.93,7.07,7.87,2.99-.54,6.01-.93,9.04-1.16,1.74-.2,3.48-.39,5.22-.61,4.85-.33,9.57-1.5,14-3.41v-16.7c-1.13.4-2.35.61-3.61.61h-24.58c-6.23,0-11.3-5.16-11.3-11.5v-14.81h-45.76l.72,8.7h28.02ZM147.82,133.86v-2.09c0-1.36.19-2.68.51-3.94v-2.74h-16.83v15.39h16.83v-2.63c-.33-1.29-.51-2.63-.51-3.99ZM151.51,119.09c.7,0,1.33.25,1.82.65,1.09-.94,2.29-1.73,3.6-2.35-.9-1.7-2.65-2.85-4.64-2.85h-24.58c-2.92,0-5.3,2.47-5.3,5.5v25.46c0,3.03,2.38,5.5,5.3,5.5h24.58c1.26,0,2.43-.47,3.34-1.24l-2.68-3.67c-.42.24-.91.39-1.44.39h-23.19c-1.55,0-2.82-1.21-2.82-2.68v-22.03c0-1.48,1.27-2.68,2.82-2.68h23.19ZM155.09,179.61c-.47.17-.94.32-1.42.48-.44.14-.89.27-1.33.4-.45.13-.89.25-1.34.37-.5.13-1.01.24-1.52.36-.4.09-.81.18-1.22.26-.59.12-1.19.22-1.79.31-.34.05-.67.12-1,.16-.94.13-1.89.24-2.84.31-1.77.23-3.55.43-5.33.62-2.29.17-4.57.46-6.84.82,1.36,3.4,2.17,7.05,2.33,10.8h23.11v-15.19c-.27.1-.54.21-.81.3ZM116.4,175.58h0c-.84-.69-1.75-1.3-2.67-1.87l.27,2.22c.56,4.49,4.08,8.12,8.58,8.81l1.16.17c-1.68-3.57-4.15-6.77-7.34-9.33ZM109.27,176.49l-.65-5.26c-2.8-.98-5.77-1.5-8.77-1.5h-6.69c-.8,0-1.46.65-1.46,1.44s.66,1.44,1.46,1.44c3.88,0,7.66,1.33,10.67,3.76l.31.25h0c4.29,3.44,6.75,8.56,6.75,14.05v6.86h15.29v-1.59c0-2.03-.24-4.03-.69-5.96l-3.64-.56c-6.6-1.02-11.76-6.33-12.58-12.93ZM103.57,204.82l6.97,3.8c6.55,3.57,14.69,1.6,18.92-4.42h-22.87,0c-1.08-.01-2.11.22-3.03.62ZM72.88,157.6l1.32,15.91h.01c3.64-.6,7.25-1.33,10.84-2.16,0-.06-.01-.11-.01-.16,0-4.47,3.65-8.1,8.12-8.1h6.69c2.79,0,5.56.36,8.25,1.05.24-.11.49-.21.72-.33-6.18-1.93-12.56-3.09-19.02-3.45-5.72-.34-11.39-1.28-16.92-2.76ZM74.69,179.31l.82,9.87c.26,3,2.77,5.3,5.78,5.32h19.17c.23-.44.47-.88.73-1.31.08-.13.16-.25.24-.38.19-.31.39-.61.6-.91.09-.13.19-.27.29-.4.22-.3.45-.6.69-.9.09-.11.17-.22.26-.33.28-.33.57-.65.86-.97-.36-2.93-1.83-5.59-4.17-7.47l-.3-.26c-1.84-1.47-4.15-2.28-6.5-2.28s-4.39-.97-5.86-2.51c-.13.03-.25.06-.38.09-.05.01-.1.02-.15.04-1.76.41-3.52.79-5.29,1.14-.42.09-.83.17-1.25.26-1.84.36-3.69.7-5.54,1ZM164.74,169l3.1-3.49v-7.14c-1.85-.28-3.63-.88-5.27-1.76v40.94h15.29v-40.94c-1.63.88-3.4,1.48-5.26,1.76v7.14l3.1,3.49c.87.98.78,2.48-.2,3.35-.46.41-1.02.61-1.58.61-.66,0-1.31-.28-1.78-.8l-1.92-2.17-1.93,2.17c-.47.52-1.12.8-1.78.8-.56,0-1.12-.2-1.58-.61-.98-.87-1.07-2.37-.19-3.35ZM184.17,139.33c1.17-1.6,1.79-3.49,1.79-5.47v-2.09c0-4.06-2.64-7.51-6.28-8.78v2.71c0,1.31-1.07,2.38-2.38,2.38s-2.38-1.07-2.38-2.38v-3.23h-2.32v6.16c0,1.31-1.07,2.38-2.38,2.38s-2.38-1.07-2.38-2.38v-6.16h-2.32v3.23c0,1.15-.83,2.12-1.93,2.33-.14.03-.29.05-.44.05h-.01c-1.31,0-2.38-1.07-2.38-2.38v-2.71c-.29.1-.57.22-.85.35,0,0-.02,0-.03,0-.83.39-1.6.9-2.28,1.51h0c-1.91,1.69-3.12,4.16-3.12,6.91v2.09h.02c0,1.98.62,3.87,1.79,5.47l1.31,1.79v-.02l5.08,6.96c.15.2.31.39.48.58h0c1.77,2.04,4.37,3.25,7.08,3.25,2.97,0,5.8-1.43,7.56-3.83l6.38-8.73ZM184.52,182.51c6.96.35,13.22.38,20.48.38l.72-8.62h0c-8.28.28-15.03,1.49-21.19,3.82v4.42ZM206.2,168.47l.72-8.71c-1.34.02-2.68.05-4.03.09-.51.02-1.03.04-1.55.06-.8.03-1.6.07-2.4.11-.67.03-1.34.07-2,.11-.62.04-1.23.08-1.84.12-.79.05-1.58.11-2.37.18-.41.03-.81.07-1.22.1-2.33.21-4.66.45-6.99.74v10.68c1.97-.66,3.99-1.23,6.1-1.7.12-.03.24-.06.36-.08.43-.1.86-.18,1.3-.27.19-.03.38-.07.57-.11.4-.07.8-.14,1.2-.21.24-.04.48-.08.73-.12.37-.06.75-.11,1.13-.16.28-.04.56-.08.85-.12.36-.05.71-.09,1.07-.13.33-.04.65-.07.98-.11.34-.03.67-.07,1.02-.1.36-.03.74-.06,1.11-.09.32-.03.63-.05.94-.07.45-.03.9-.06,1.35-.08.26-.02.51-.04.78-.05.72-.03,1.45-.06,2.19-.08ZM207.41,153.94l.73-8.75h-20.01l-3.61,4.94v5.29c7.59-.91,15.23-1.4,22.89-1.48ZM208.62,139.39l.72-8.7h-16.78c.02.36.05.72.05,1.08v2.09c0,1.92-.35,3.78-1,5.53h17.01ZM98.21,200.3h-16.93c-6.02-.03-11.03-4.64-11.56-10.64l-4.92-58.97h-11.52l6.82,68.16c.73,7.42,6.97,13.07,14.43,13.05h17.78v-.08c0-4.74,2.33-8.93,5.9-11.52ZM113.66,233.42c-1.17-1.16-2.84-1.71-4.47-1.49l-8.86,1.23c-1.31.18-2.31,1.31-2.31,2.63,0,.73.32,1.44.86,1.94l3.83,3.54h11.29l.86-2.26h0c.73-1.95.26-4.13-1.2-5.59ZM198.7,231.39c-5.92,1.32-10.94,4.89-14.09,9.88h10.77c4.19-.01,7.6-3.41,7.6-7.61,0-1.09-.24-2.13-.66-3.07l-3.62.8ZM90.71,226.06c-4.19,0-7.6,3.41-7.6,7.6s3.4,7.6,7.6,7.6h5.01l-.06-.05c-1.51-1.4-2.39-3.37-2.39-5.43,0-3.68,2.76-6.84,6.42-7.34l8.86-1.22c3.1-.42,6.26.64,8.48,2.84,2.78,2.78,3.68,6.95,2.29,10.63l-.23.58h60.09c3.61-7.38,10.36-12.73,18.5-14.54l.54-.11c-.87-.36-1.83-.56-2.84-.56h-104.67ZM226.71,130.7h-11.53l-4.91,58.97c-.54,6-5.55,10.61-11.58,10.64h-6.49v-5.8h6.49c3.01-.02,5.51-2.32,5.78-5.32l.04-.48c-7.05-.01-13.2-.04-19.99-.38v6.17h1.88v4.85c4.38,2.44,7.36,7.1,7.36,12.46v.09h11.7c7.46.02,13.7-5.63,14.43-13.05h-.01s6.83-68.15,6.83-68.15Z"/>
  <path id="black-outline-2" data-name="black-outline" d="M206.7,200.3h5.8v5.8h-5.8v-5.8ZM224.11,133.59h-5.8v5.8h5.8v-5.8ZM163.59,134.34h0c-.11-.07-.22-.13-.33-.18-.05-.02-.1-.04-.14-.05-.11-.04-.21-.07-.33-.1-.05-.01-.09-.02-.14-.03-.16-.03-.31-.05-.48-.05,0,0,0,0,0,0s0,0,0,0c-1.5,0-2.72,1.22-2.72,2.71s1.22,2.71,2.72,2.71c0,0,0,0,0,0s0,0,0,0c.16,0,.32-.02.48-.05.05,0,.09-.02.14-.03.11-.03.22-.06.33-.1.05-.02.1-.03.14-.05.11-.05.22-.11.33-.17h0c.77-.48,1.3-1.33,1.3-2.3s-.52-1.82-1.3-2.3ZM136.84,138.58h5.8v-11.6h-5.8v11.6ZM177.21,134.04c-1.5,0-2.72,1.22-2.72,2.71s1.22,2.71,2.72,2.71,2.72-1.22,2.72-2.71-1.22-2.71-2.72-2.71ZM110.99,139.39h-5.8v5.8h5.8v-5.8ZM55.88,142.29h5.8v-5.8h-5.8v5.8ZM67.48,206.1h5.8v-5.8h-5.8v5.8ZM232.84,127.77c0,.1,0,.2-.01.3l-7.14,71.35c-1.02,10.39-9.78,18.31-20.22,18.27h-13c-.27.6-.58,1.17-.93,1.72h3.83c7.87.01,14.26,6.4,14.26,14.27s-6.39,14.26-14.26,14.26h-104.67c-7.87,0-14.26-6.4-14.26-14.26s6.39-14.26,14.26-14.26h3.83c-.35-.55-.66-1.13-.94-1.73h-19.05c-10.44.03-19.19-7.88-20.2-18.27l-7.14-71.35c-.09-.9.27-1.72.86-2.31l-.03-.03,19.43-21.97s0,0,0-.01l-19.86-32.46.04-.03c-.27-.44-.47-.93-.47-1.49,0-21.5,13.72-37.71,31.91-37.71h.7c3.65,0,6.69,2.46,7.65,5.8h105.11c.96-3.34,4-5.8,7.65-5.8h.7c18.19,0,31.91,16.21,31.91,37.71,0,.54-.18,1.01-.44,1.46h.02l-17.43,28.34c.09.17.19.33.27.5,1.95,4.14,4.97,10.16,6.09,12.15.86,1.51,4.32,6.27,6.29,8.92.17.22.32.46.45.7l3.86,3.86h.02c.55.52.9,1.25.9,2.07ZM198,40.06c.02.89.57,1.69,1.39,2.03,4.64,2.12,12.25,8.11,13.05,24.78h14.47c-1.13-16.72-11.93-29-26.01-29h-.7c-1.22,0-2.2.98-2.2,2.19ZM151.59,49.48c11.46,0,26.99,0,37.37.02h.5c1.16-.06,2.32.04,3.46.29,2.34.33,4.06,2.39,3.96,4.75-.25,1.41-1.13,2.64-2.38,3.35,4.43.19,6.55.26,10.72.28-2.03-6.82-5.73-9.63-8.24-10.77-1.71-.77-2.99-2.12-3.82-3.72h-41.57v5.8ZM134.19,66.87h11.6v-23.2h-11.6v23.2ZM102.95,60.29c-.48.96-1.31,1.7-2.32,2.06-2.01.71-4.13,1.08-6.26,1.1-7.13.38-13.26.5-20.75.52-.11.92-.2,1.87-.25,2.89h55.03v-14.5c-10.39,0-22.11.01-31.56.03h-.68c.58.37,1.21.71,1.86,1.07,1.14.6,2.25,1.27,3.31,2.01,1.67.97,2.37,3.03,1.62,4.82ZM83,47.39c-2.51,1.14-6.21,3.95-8.24,10.77,6.72-.03,12.45-.15,18.91-.49-.94-.54-1.83-1.16-2.66-1.86-1.15-.9-1.91-2.21-2.11-3.65-.07-2.37,1.47-4.49,3.75-5.14,1.18-.36,2.43-.5,3.67-.43h.5c9.46-.02,21.18-.02,31.57-.02v-2.9h-41.57c-.82,1.61-2.11,2.95-3.82,3.72ZM53.07,66.87h14.47c.79-16.67,8.41-22.66,13.05-24.77.83-.34,1.37-1.14,1.39-2.03.01-1.21-.98-2.2-2.19-2.2h-.71c-14.08,0-24.88,12.27-26.01,29ZM73.57,100.77l2.93-.31h.15c3.39.24,7.72.33,8.77.12.34-.13.98-.66,1.25-1.06-1.71-2.42-2.36-5.26-1.83-7.81-1.29-.79-2.42-1.9-2.95-3.52-.38-1.15-.7-3.45,1.39-5.99,4.22-5.13,9.27-7.56,13.86-6.64,1.73.34,6.65.24,8.5.2.56-.01.99-.02,1.24-.02,2.68,0,11.1,3.59,11.1,9.82,0,.95-.1,1.84-.27,2.65.62.02,1.43.04,2.44.04.27,0,.5-.09.67-.21-.47-.97-1.14-2.51-1.14-4.68,0-6.62,4.36-9.98,12.96-9.98,10.61,0,14.57,6.12,14.57,9.98,0,.19,0,.39.02.59.01.47.01.91-.02,1.32,1.02-1.53,2.34-2.38,3.88-2.49,1.92-.15,3.63.9,4.59,2.8.77,1.36,5.06,5.01,7.96,5.17,2.87.15,6.31.16,9.03.06-.51-.98-.89-2.19-.89-3.7,0-7.42,8.07-7.42,12.41-7.42,10.86,0,16.36,2.85,16.36,8.47,0,1.58-.34,3.01-.83,4.26,3.58.43,7.74,1.2,10.97,3.02l14.01-22.77h-23.79v-5.8h5.72c-.05-1.02-.14-1.98-.25-2.9-5.73-.02-7.68-.09-14.11-.36l-.81-.03c-2.05,0-4.08-.27-6.06-.79-.99-.25-1.84-.86-2.4-1.71-.43-.77-.56-1.67-.37-2.53.34-1.09,1.11-1.98,2.14-2.47.53-.29,1.08-.56,1.63-.8h-34.81v11.6h43.51v5.8H55.4l18.17,28.09ZM62.34,122.27l54.07-.1v-2.13c0-6.34,5.07-11.5,11.3-11.5h24.58c4.09,0,6.87,2,7.99,3.36,0,0,12.44,0,19.24.67,8.19.68,12.65,5.49,14.65,8.49l24.15.93c-1.53-2.12-3.22-4.54-3.96-5.82-1.22-2.17-4.32-8.34-6.37-12.7-.51-1.08-3.05-2.55-12.32-3.43-3.09-.3-4.79-.46-5.95-2.38l-1.04-1.71.74-1.92c.3-.74.73-1.3,1.23-1.94.69-.89,1.59-2.05,1.84-3.3-.94-.44-3.41-1.1-8.3-1.1-.89,0-2.62,0-3.85.12.04.04.08.08.11.12.98,1.05,2.63,2.8,2.63,5.71,0,1.19-.49,2.31-1.37,3.14-1.96,1.86-8.19,2.52-18.51,1.95-4.42-.24-8.85-3.11-11.73-5.89l-2.17,1.19c-3.94,2.19-8.72-.84-10.65-3.86-1.6-2.51-.85-4.85.58-6.08-.01-.16-.02-.32-.02-.48-.29-.69-1.92-2.23-6.57-2.23-4,0-4.85.87-4.85.88-.03.05-.11.27-.11,1.1,0,.47.11.73.44,1.4.39.79.97,2,.97,3.56,0,3.74-3.82,7.93-8.94,7.93-3.28,0-4.8-.16-4.96-.17l-.47-.08-9.9-2.28,4.17-5s.23-.3.46-.82c.23-.51.48-1.24.52-2.09-.49-.69-2.34-1.79-3.35-2.07-.21.01-.49.01-.81.02-3.7.07-7.84.12-10.23-.36-.75-.15-2.43.22-4.55,2.19.23.07.43.12.56.15,3.45.87,4.05,2.9,3.95,4.46-.02.3-.27,2.74-2.84,3.57.06.31.2.73.55,1.19,1.56,2.08,1.95,4.57,1.09,7-1.16,3.29-4.47,5.74-6.99,6.38-2.34.59-8.14.31-10.88.13l-2.78.32c-4.99,6.02-8.64,10.36-11.35,13.48ZM174.1,219.41h5.38c4.19,0,7.61-3.41,7.61-7.6s-3.41-7.6-7.61-7.6h-44.38l-1.12,1.82c-3.65,5.88-9.97,9.14-16.47,9.14-3.13,0-6.31-.76-9.25-2.35l-8.39-4.57c-.57,1.06-.89,2.27-.89,3.55,0,4.19,3.41,7.6,7.61,7.6h38.77c.73-4.95,4.17-9.19,9-10.89,3.77-1.32,7.93-.95,11.39,1.03l1.79,1.02c3.36,1.92,5.71,5.17,6.56,8.85ZM165.18,214.71l-1.79-1.03c-2.26-1.3-4.99-1.54-7.45-.67-2.92,1.02-5.06,3.48-5.75,6.4h18.94c-.71-1.96-2.08-3.63-3.95-4.7ZM99.39,139.39v5.8h-27.54l.52,6.25c5.87,1.73,11.9,2.8,18.01,3.14,8.1.35,16.08,2.07,23.61,5.08,2.07.61,3.25,2.78,2.64,4.85-.23.79-.71,1.49-1.36,1.99-.11.09-.23.16-.34.25,1.99,1.02,3.89,2.24,5.64,3.65,2.81,2.26,5.18,4.93,7.07,7.87,2.99-.54,6.01-.93,9.04-1.16,1.74-.2,3.48-.39,5.22-.61,4.85-.33,9.57-1.5,14-3.41v-16.7c-1.13.4-2.35.61-3.61.61h-24.58c-6.23,0-11.3-5.16-11.3-11.5v-14.81h-45.76l.72,8.7h28.02ZM147.82,133.86v-2.09c0-1.36.19-2.68.51-3.94v-2.74h-16.83v15.39h16.83v-2.63c-.33-1.29-.51-2.63-.51-3.99ZM151.51,119.09c.7,0,1.33.25,1.82.65,1.09-.94,2.29-1.73,3.6-2.35-.9-1.7-2.65-2.85-4.64-2.85h-24.58c-2.92,0-5.3,2.47-5.3,5.5v25.46c0,3.03,2.38,5.5,5.3,5.5h24.58c1.26,0,2.43-.47,3.34-1.24l-2.68-3.67c-.42.24-.91.39-1.44.39h-23.19c-1.55,0-2.82-1.21-2.82-2.68v-22.03c0-1.48,1.27-2.68,2.82-2.68h23.19ZM155.09,179.61c-.47.17-.94.32-1.42.48-.44.14-.89.27-1.33.4-.45.13-.89.25-1.34.37-.5.13-1.01.24-1.52.36-.4.09-.81.18-1.22.26-.59.12-1.19.22-1.79.31-.34.05-.67.12-1,.16-.94.13-1.89.24-2.84.31-1.77.23-3.55.43-5.33.62-2.29.17-4.57.46-6.84.82,1.36,3.4,2.17,7.05,2.33,10.8h23.11v-15.19c-.27.1-.54.21-.81.3ZM116.4,175.58h0c-.84-.69-1.75-1.3-2.67-1.87l.27,2.22c.56,4.49,4.08,8.12,8.58,8.81l1.16.17c-1.68-3.57-4.15-6.77-7.34-9.33ZM109.27,176.49l-.65-5.26c-2.8-.98-5.77-1.5-8.77-1.5h-6.69c-.8,0-1.46.65-1.46,1.44s.66,1.44,1.46,1.44c3.88,0,7.66,1.33,10.67,3.76l.31.25h0c4.29,3.44,6.75,8.56,6.75,14.05v6.86h15.29v-1.59c0-2.03-.24-4.03-.69-5.96l-3.64-.56c-6.6-1.02-11.76-6.33-12.58-12.93ZM103.57,204.82l6.97,3.8c6.55,3.57,14.69,1.6,18.92-4.42h-22.87,0c-1.08-.01-2.11.22-3.03.62ZM72.88,157.6l1.32,15.91h.01c3.64-.6,7.25-1.33,10.84-2.16,0-.06-.01-.11-.01-.16,0-4.47,3.65-8.1,8.12-8.1h6.69c2.79,0,5.56.36,8.25,1.05.24-.11.49-.21.72-.33-6.18-1.93-12.56-3.09-19.02-3.45-5.72-.34-11.39-1.28-16.92-2.76ZM74.69,179.31l.82,9.87c.26,3,2.77,5.3,5.78,5.32h19.17c.23-.44.47-.88.73-1.31.08-.13.16-.25.24-.38.19-.31.39-.61.6-.91.09-.13.19-.27.29-.4.22-.3.45-.6.69-.9.09-.11.17-.22.26-.33.28-.33.57-.65.86-.97-.36-2.93-1.83-5.59-4.17-7.47l-.3-.26c-1.84-1.47-4.15-2.28-6.5-2.28s-4.39-.97-5.86-2.51c-.13.03-.25.06-.38.09-.05.01-.1.02-.15.04-1.76.41-3.52.79-5.29,1.14-.42.09-.83.17-1.25.26-1.84.36-3.69.7-5.54,1ZM164.74,169l3.1-3.49v-7.14c-1.85-.28-3.63-.88-5.27-1.76v40.94h15.29v-40.94c-1.63.88-3.4,1.48-5.26,1.76v7.14l3.1,3.49c.87.98.78,2.48-.2,3.35-.46.41-1.02.61-1.58.61-.66,0-1.31-.28-1.78-.8l-1.92-2.17-1.93,2.17c-.47.52-1.12.8-1.78.8-.56,0-1.12-.2-1.58-.61-.98-.87-1.07-2.37-.19-3.35ZM184.17,139.33c1.17-1.6,1.79-3.49,1.79-5.47v-2.09c0-4.06-2.64-7.51-6.28-8.78v2.71c0,1.31-1.07,2.38-2.38,2.38s-2.38-1.07-2.38-2.38v-3.23h-2.32v6.16c0,1.31-1.07,2.38-2.38,2.38s-2.38-1.07-2.38-2.38v-6.16h-2.32v3.23c0,1.15-.83,2.12-1.93,2.33-.14.03-.29.05-.44.05h-.01c-1.31,0-2.38-1.07-2.38-2.38v-2.71c-.29.1-.57.22-.85.35,0,0-.02,0-.03,0-.83.39-1.6.9-2.28,1.51h0c-1.91,1.69-3.12,4.16-3.12,6.91v2.09h.02c0,1.98.62,3.87,1.79,5.47l1.31,1.79v-.02l5.08,6.96c.15.2.31.39.48.58h0c1.77,2.04,4.37,3.25,7.08,3.25,2.97,0,5.8-1.43,7.56-3.83l6.38-8.73ZM184.52,182.51c6.96.35,13.22.38,20.48.38l.72-8.62h0c-8.28.28-15.03,1.49-21.19,3.82v4.42ZM206.2,168.47l.72-8.71c-1.34.02-2.68.05-4.03.09-.51.02-1.03.04-1.55.06-.8.03-1.6.07-2.4.11-.67.03-1.34.07-2,.11-.62.04-1.23.08-1.84.12-.79.05-1.58.11-2.37.18-.41.03-.81.07-1.22.1-2.33.21-4.66.45-6.99.74v10.68c1.97-.66,3.99-1.23,6.1-1.7.12-.03.24-.06.36-.08.43-.1.86-.18,1.3-.27.19-.03.38-.07.57-.11.4-.07.8-.14,1.2-.21.24-.04.48-.08.73-.12.37-.06.75-.11,1.13-.16.28-.04.56-.08.85-.12.36-.05.71-.09,1.07-.13.33-.04.65-.07.98-.11.34-.03.67-.07,1.02-.1.36-.03.74-.06,1.11-.09.32-.03.63-.05.94-.07.45-.03.9-.06,1.35-.08.26-.02.51-.04.78-.05.72-.03,1.45-.06,2.19-.08ZM207.41,153.94l.73-8.75h-20.01l-3.61,4.94v5.29c7.59-.91,15.23-1.4,22.89-1.48ZM208.62,139.39l.72-8.7h-16.78c.02.36.05.72.05,1.08v2.09c0,1.92-.35,3.78-1,5.53h17.01ZM98.21,200.3h-16.93c-6.02-.03-11.03-4.64-11.56-10.64l-4.92-58.97h-11.52l6.82,68.16c.73,7.42,6.97,13.07,14.43,13.05h17.78v-.08c0-4.74,2.33-8.93,5.9-11.52ZM113.66,233.42c-1.17-1.16-2.84-1.71-4.47-1.49l-8.86,1.23c-1.31.18-2.31,1.31-2.31,2.63,0,.73.32,1.44.86,1.94l3.83,3.54h11.29l.86-2.26h0c.73-1.95.26-4.13-1.2-5.59ZM198.7,231.39c-5.92,1.32-10.94,4.89-14.09,9.88h10.77c4.19-.01,7.6-3.41,7.6-7.61,0-1.09-.24-2.13-.66-3.07l-3.62.8ZM90.71,226.06c-4.19,0-7.6,3.41-7.6,7.6s3.4,7.6,7.6,7.6h5.01l-.06-.05c-1.51-1.4-2.39-3.37-2.39-5.43,0-3.68,2.76-6.84,6.42-7.34l8.86-1.22c3.1-.42,6.26.64,8.48,2.84,2.78,2.78,3.68,6.95,2.29,10.63l-.23.58h60.09c3.61-7.38,10.36-12.73,18.5-14.54l.54-.11c-.87-.36-1.83-.56-2.84-.56h-104.67ZM226.71,130.7h-11.53l-4.91,58.97c-.54,6-5.55,10.61-11.58,10.64h-6.49v-5.8h6.49c3.01-.02,5.51-2.32,5.78-5.32l.04-.48c-7.05-.01-13.2-.04-19.99-.38v6.17h1.88v4.85c4.38,2.44,7.36,7.1,7.36,12.46v.09h11.7c7.46.02,13.7-5.63,14.43-13.05h-.01s6.83-68.15,6.83-68.15Z"/>
  <path id="gold" class="gradient-a" d="M179.52,112.57c-2.64-.22-5.05-.36-7.17-.44-.94-.04-1.89-.07-2.81-.09-1.28-.03-2.41-.05-3.35-.05,0-.01-.01-.02-.02-.03-3.38-.06-5.89-.06-5.89-.06-2.05-2.05-4.51-2.98-6.27-3.22-.56-.09-1.14-.14-1.73-.14h-24.58c-.38,0-.76.02-1.13.06-.34.03-.67.09-.99.15-.03,0-.07,0-.1.02-.72.15-1.41.36-2.07.64,0,0-.02,0-.03,0-.28.12-.56.26-.83.4-.06.03-.11.05-.17.08-.2.11-.4.24-.6.36-.12.07-.24.14-.36.22-.12.08-.23.17-.35.26-.19.14-.37.27-.55.42-.04.03-.07.07-.11.1-2.16,1.85-3.66,4.51-3.96,7.6-.04.39-.06.78-.06,1.18v2.13h-1.48l-52.59.1c2.71-3.12,6.36-7.46,11.35-13.49l2.77-.31c2.74.18,8.54.46,10.88-.14,2.52-.64,5.83-3.09,6.99-6.38.86-2.43.47-4.92-1.09-7-.35-.46-.49-.88-.55-1.19,2.57-.83,2.81-3.27,2.83-3.58.11-1.55-.49-3.59-3.95-4.46-.13-.03-.33-.08-.56-.14,2.12-1.97,3.8-2.34,4.55-2.19,2.39.47,6.53.43,10.22.35.33,0,.6-.01.81-.02,1.01.28,2.86,1.38,3.35,2.07-.09,1.69-.99,2.9-.98,2.9,0,0,0,0,0,0l-4.17,5,9.91,2.28.46.08c.16.02,1.68.17,4.96.17,5.12,0,8.94-4.19,8.94-7.93,0-1.56-.58-2.77-.97-3.56-.33-.67-.44-.93-.44-1.4,0-.83.08-1.05.11-1.1,0,0,.85-.88,4.85-.88,4.65,0,6.28,1.54,6.57,2.23,0,.16,0,.32.01.48-1.43,1.23-2.18,3.57-.57,6.08,1.93,3.03,6.71,6.05,10.65,3.86l2.16-1.19c2.89,2.78,7.32,5.66,11.74,5.9,10.32.57,16.54-.09,18.51-1.95.88-.84,1.37-1.95,1.37-3.14,0-2.91-1.65-4.66-2.63-5.71-.03-.04-.07-.07-.1-.11,1.23-.12,2.95-.12,3.85-.12,4.89,0,7.36.66,8.3,1.1-.24,1.25-1.15,2.41-1.84,3.3-.5.65-.93,1.2-1.23,1.94l-.74,1.92,1.04,1.71c1.17,1.91,2.87,2.08,5.96,2.37,9.26.89,11.81,2.36,12.32,3.44,2.05,4.36,5.15,10.53,6.37,12.7.73,1.28,2.43,3.7,3.96,5.82l-24.14-.93c-2.01-2.99-6.46-7.81-14.66-8.48ZM106.6,204.19c-1.08,0-2.11.23-3.03.63l6.97,3.8c6.55,3.57,14.69,1.6,18.92-4.42h-22.87,0ZM109.19,231.93l-8.86,1.23c-1.31.18-2.31,1.31-2.31,2.63,0,.73.32,1.44.86,1.94l3.83,3.54h11.29l.86-2.26h0c.73-1.95.26-4.13-1.2-5.59-1.17-1.16-2.84-1.71-4.47-1.49ZM165.18,214.71l-1.79-1.03c-2.26-1.3-4.99-1.54-7.45-.67-2.92,1.02-5.06,3.48-5.75,6.4h18.95c-.72-1.95-2.09-3.63-3.96-4.7ZM198.7,231.39c-5.92,1.32-10.94,4.89-14.09,9.88h10.77c4.19-.01,7.6-3.41,7.6-7.61,0-1.09-.24-2.13-.66-3.07l-3.62.8ZM113.73,173.71l.27,2.22c.56,4.49,4.08,8.12,8.58,8.81l1.16.17c-1.68-3.57-4.15-6.77-7.34-9.33h0c-.84-.69-1.75-1.3-2.67-1.87Z"/>
  <path id="gold" class="gradient-a" d="M179.52,112.57c-2.64-.22-5.05-.36-7.17-.44-.94-.04-1.89-.07-2.81-.09-1.28-.03-2.41-.05-3.35-.05,0-.01-.01-.02-.02-.03-3.38-.06-5.89-.06-5.89-.06-2.05-2.05-4.51-2.98-6.27-3.22-.56-.09-1.14-.14-1.73-.14h-24.58c-.38,0-.76.02-1.13.06-.34.03-.67.09-.99.15-.03,0-.07,0-.1.02-.72.15-1.41.36-2.07.64,0,0-.02,0-.03,0-.28.12-.56.26-.83.4-.06.03-.11.05-.17.08-.2.11-.4.24-.6.36-.12.07-.24.14-.36.22-.12.08-.23.17-.35.26-.19.14-.37.27-.55.42-.04.03-.07.07-.11.1-2.16,1.85-3.66,4.51-3.96,7.6-.04.39-.06.78-.06,1.18v2.13h-1.48l-52.59.1c2.71-3.12,6.36-7.46,11.35-13.49l2.77-.31c2.74.18,8.54.46,10.88-.14,2.52-.64,5.83-3.09,6.99-6.38.86-2.43.47-4.92-1.09-7-.35-.46-.49-.88-.55-1.19,2.57-.83,2.81-3.27,2.83-3.58.11-1.55-.49-3.59-3.95-4.46-.13-.03-.33-.08-.56-.14,2.12-1.97,3.8-2.34,4.55-2.19,2.39.47,6.53.43,10.22.35.33,0,.6-.01.81-.02,1.01.28,2.86,1.38,3.35,2.07-.09,1.69-.99,2.9-.98,2.9,0,0,0,0,0,0l-4.17,5,9.91,2.28.46.08c.16.02,1.68.17,4.96.17,5.12,0,8.94-4.19,8.94-7.93,0-1.56-.58-2.77-.97-3.56-.33-.67-.44-.93-.44-1.4,0-.83.08-1.05.11-1.1,0,0,.85-.88,4.85-.88,4.65,0,6.28,1.54,6.57,2.23,0,.16,0,.32.01.48-1.43,1.23-2.18,3.57-.57,6.08,1.93,3.03,6.71,6.05,10.65,3.86l2.16-1.19c2.89,2.78,7.32,5.66,11.74,5.9,10.32.57,16.54-.09,18.51-1.95.88-.84,1.37-1.95,1.37-3.14,0-2.91-1.65-4.66-2.63-5.71-.03-.04-.07-.07-.1-.11,1.23-.12,2.95-.12,3.85-.12,4.89,0,7.36.66,8.3,1.1-.24,1.25-1.15,2.41-1.84,3.3-.5.65-.93,1.2-1.23,1.94l-.74,1.92,1.04,1.71c1.17,1.91,2.87,2.08,5.96,2.37,9.26.89,11.81,2.36,12.32,3.44,2.05,4.36,5.15,10.53,6.37,12.7.73,1.28,2.43,3.7,3.96,5.82l-24.14-.93c-2.01-2.99-6.46-7.81-14.66-8.48ZM106.6,204.19c-1.08,0-2.11.23-3.03.63l6.97,3.8c6.55,3.57,14.69,1.6,18.92-4.42h-22.87,0ZM109.19,231.93l-8.86,1.23c-1.31.18-2.31,1.31-2.31,2.63,0,.73.32,1.44.86,1.94l3.83,3.54h11.29l.86-2.26h0c.73-1.95.26-4.13-1.2-5.59-1.17-1.16-2.84-1.71-4.47-1.49ZM165.18,214.71l-1.79-1.03c-2.26-1.3-4.99-1.54-7.45-.67-2.92,1.02-5.06,3.48-5.75,6.4h18.95c-.72-1.95-2.09-3.63-3.96-4.7ZM198.7,231.39c-5.92,1.32-10.94,4.89-14.09,9.88h10.77c4.19-.01,7.6-3.41,7.6-7.61,0-1.09-.24-2.13-.66-3.07l-3.62.8ZM113.73,173.71l.27,2.22c.56,4.49,4.08,8.12,8.58,8.81l1.16.17c-1.68-3.57-4.15-6.77-7.34-9.33h0c-.84-.69-1.75-1.3-2.67-1.87Z"/>
  <path id="gold" class="gradient-b" d="M179.52,112.57c-2.64-.22-5.05-.36-7.17-.44-.94-.04-1.89-.07-2.81-.09-1.28-.03-2.41-.05-3.35-.05,0-.01-.01-.02-.02-.03-3.38-.06-5.89-.06-5.89-.06-2.05-2.05-4.51-2.98-6.27-3.22-.56-.09-1.14-.14-1.73-.14h-24.58c-.38,0-.76.02-1.13.06-.34.03-.67.09-.99.15-.03,0-.07,0-.1.02-.72.15-1.41.36-2.07.64,0,0-.02,0-.03,0-.28.12-.56.26-.83.4-.06.03-.11.05-.17.08-.2.11-.4.24-.6.36-.12.07-.24.14-.36.22-.12.08-.23.17-.35.26-.19.14-.37.27-.55.42-.04.03-.07.07-.11.1-2.16,1.85-3.66,4.51-3.96,7.6-.04.39-.06.78-.06,1.18v2.13h-1.48l-52.59.1c2.71-3.12,6.36-7.46,11.35-13.49l2.77-.31c2.74.18,8.54.46,10.88-.14,2.52-.64,5.83-3.09,6.99-6.38.86-2.43.47-4.92-1.09-7-.35-.46-.49-.88-.55-1.19,2.57-.83,2.81-3.27,2.83-3.58.11-1.55-.49-3.59-3.95-4.46-.13-.03-.33-.08-.56-.14,2.12-1.97,3.8-2.34,4.55-2.19,2.39.47,6.53.43,10.22.35.33,0,.6-.01.81-.02,1.01.28,2.86,1.38,3.35,2.07-.09,1.69-.99,2.9-.98,2.9,0,0,0,0,0,0l-4.17,5,9.91,2.28.46.08c.16.02,1.68.17,4.96.17,5.12,0,8.94-4.19,8.94-7.93,0-1.56-.58-2.77-.97-3.56-.33-.67-.44-.93-.44-1.4,0-.83.08-1.05.11-1.1,0,0,.85-.88,4.85-.88,4.65,0,6.28,1.54,6.57,2.23,0,.16,0,.32.01.48-1.43,1.23-2.18,3.57-.57,6.08,1.93,3.03,6.71,6.05,10.65,3.86l2.16-1.19c2.89,2.78,7.32,5.66,11.74,5.9,10.32.57,16.54-.09,18.51-1.95.88-.84,1.37-1.95,1.37-3.14,0-2.91-1.65-4.66-2.63-5.71-.03-.04-.07-.07-.1-.11,1.23-.12,2.95-.12,3.85-.12,4.89,0,7.36.66,8.3,1.1-.24,1.25-1.15,2.41-1.84,3.3-.5.65-.93,1.2-1.23,1.94l-.74,1.92,1.04,1.71c1.17,1.91,2.87,2.08,5.96,2.37,9.26.89,11.81,2.36,12.32,3.44,2.05,4.36,5.15,10.53,6.37,12.7.73,1.28,2.43,3.7,3.96,5.82l-24.14-.93c-2.01-2.99-6.46-7.81-14.66-8.48ZM106.6,204.19c-1.08,0-2.11.23-3.03.63l6.97,3.8c6.55,3.57,14.69,1.6,18.92-4.42h-22.87,0ZM109.19,231.93l-8.86,1.23c-1.31.18-2.31,1.31-2.31,2.63,0,.73.32,1.44.86,1.94l3.83,3.54h11.29l.86-2.26h0c.73-1.95.26-4.13-1.2-5.59-1.17-1.16-2.84-1.71-4.47-1.49ZM165.18,214.71l-1.79-1.03c-2.26-1.3-4.99-1.54-7.45-.67-2.92,1.02-5.06,3.48-5.75,6.4h18.95c-.72-1.95-2.09-3.63-3.96-4.7ZM198.7,231.39c-5.92,1.32-10.94,4.89-14.09,9.88h10.77c4.19-.01,7.6-3.41,7.6-7.61,0-1.09-.24-2.13-.66-3.07l-3.62.8ZM113.73,173.71l.27,2.22c.56,4.49,4.08,8.12,8.58,8.81l1.16.17c-1.68-3.57-4.15-6.77-7.34-9.33h0c-.84-.69-1.75-1.3-2.67-1.87Z"/>
  <path id="snake-yellow" class="cls-7" d="M91.7,171.17c0-.79.66-1.44,1.46-1.44h6.69c3,0,5.97.52,8.77,1.5l.65,5.26c.82,6.6,5.98,11.91,12.58,12.93l3.64.56c.45,1.93.69,3.93.69,5.96v1.59h-15.29v-6.86c0-5.49-2.46-10.61-6.75-14.06h0s-.31-.24-.31-.24c-3.01-2.43-6.79-3.76-10.67-3.76-.8,0-1.46-.65-1.46-1.44ZM95.72,241.26l-.06-.05c-1.51-1.4-2.39-3.37-2.39-5.43,0-3.68,2.76-6.84,6.42-7.34l8.86-1.22c3.1-.42,6.26.64,8.48,2.84,2.78,2.78,3.68,6.95,2.29,10.63l-.23.58h60.09c3.61-7.38,10.36-12.73,18.5-14.54l.28-.06c-.01-.05-.02-.11-.04-.16,0,0,0,0,0,0-.19-.07-.39-.13-.59-.19-.01,0-.03,0-.04-.01-.19-.05-.37-.09-.57-.13-.07-.01-.14-.02-.21-.03-.15-.02-.29-.05-.44-.06-.23-.02-.46-.03-.69-.03h-19.36c-1.81.03-3.81.02-5.94,0h-42.3c-.06.02-.12.04-.2.05-.46.08-1.21.04-2.09-.05h-34.78c-4.19,0-7.6,3.41-7.6,7.6s3.4,7.6,7.6,7.6h5.01ZM154.5,133.86h-.02v-2.09c0-4.06,2.63-7.52,6.28-8.78v2.71c0,1.31,1.07,2.38,2.38,2.38s2.38-1.07,2.38-2.38v-3.23h2.32v6.16c0,1.31,1.07,2.38,2.38,2.38s2.38-1.07,2.38-2.38v-6.16h2.32v3.23c0,1.31,1.07,2.38,2.38,2.38s2.38-1.07,2.38-2.38v-2.71c3.64,1.27,6.28,4.72,6.28,8.78v2.09c0,1.98-.62,3.87-1.79,5.47l-6.38,8.73c-1.76,2.4-4.59,3.83-7.56,3.83s-5.81-1.44-7.56-3.83l-6.38-8.73c-1.17-1.6-1.79-3.49-1.79-5.47ZM174.49,136.75c0,1.49,1.22,2.71,2.72,2.71s2.72-1.22,2.72-2.71-1.22-2.71-2.72-2.71-2.72,1.22-2.72,2.71ZM159.45,136.64c0,1.49,1.22,2.71,2.72,2.71s2.72-1.22,2.72-2.71-1.22-2.71-2.72-2.71-2.72,1.22-2.72,2.71ZM167.84,165.51v-7.14c-1.85-.28-3.63-.88-5.27-1.76v40.94h15.29v-40.94c-1.63.88-3.4,1.48-5.26,1.76v7.14l3.1,3.49c.87.98.78,2.48-.2,3.35-.46.41-1.02.61-1.58.61-.66,0-1.31-.28-1.78-.8l-1.92-2.17-1.93,2.17c-.47.52-1.12.8-1.78.8-.56,0-1.12-.2-1.58-.61-.98-.87-1.07-2.37-.19-3.35l3.1-3.49ZM160.2,212.6c-.24-.03-.48-.06-.73-.08-.05,0-.11,0-.16,0-.21-.01-.42-.02-.63-.01.5.02,1.01.05,1.52.09ZM187.09,211.81c0-4.19-3.41-7.6-7.61-7.6h-44.38l-1.12,1.82c-3.65,5.88-9.97,9.14-16.47,9.14-3.13,0-6.31-.76-9.25-2.35l-8.39-4.57h0c-.57,1.05-.89,2.27-.89,3.55,0,4.19,3.41,7.6,7.61,7.6h38.77c.73-4.95,4.17-9.19,9-10.89,3.77-1.32,7.93-.95,11.39,1.03l1.79,1.02c3.36,1.92,5.71,5.17,6.56,8.85h5.38c4.19,0,7.61-3.41,7.61-7.6Z"/>
  <path id="brass-2" data-name="brass" class="cls-4" d="M148.32,127.87v-2.78h-16.82v15.39h16.82v-2.66c-.33-1.28-.5-2.6-.5-3.95v-2.09c0-1.35.19-2.65.5-3.9ZM142.64,138.58h-5.8v-11.6h5.8v11.6ZM152.95,146.09l2.68,3.67c-.91.78-2.08,1.24-3.35,1.24h-24.57c-2.92,0-5.3-2.47-5.3-5.5v-25.47c0-.1,0-.21.02-.31,0-.12.02-.25.03-.37.02-.13.03-.26.06-.39.04-.2.09-.4.15-.59.03-.1.07-.2.11-.3.06-.16.13-.32.2-.47.03-.07.06-.14.1-.21.11-.2.23-.39.36-.57.03-.04.06-.08.08-.12.57-.81,2.02-2.17,4.21-2.17h24.52c1.96-.02,3.94,1.14,4.68,2.85-1.3.62-2.5,1.41-3.58,2.35-.49-.4-1.12-.65-1.82-.65h-23.2c-1.55,0-2.82,1.2-2.82,2.68v22.03c0,1.47,1.27,2.68,2.82,2.68h23.2c.53,0,1.02-.15,1.44-.39Z"/>
</svg>
